<?xml version="1.0" encoding="UTF-8" standalone="no"?>
<svg
   xmlns:dc="http://purl.org/dc/elements/1.1/"
   xmlns:cc="http://creativecommons.org/ns#"
   xmlns:rdf="http://www.w3.org/1999/02/22-rdf-syntax-ns#"
   xmlns:svg="http://www.w3.org/2000/svg"
   xmlns="http://www.w3.org/2000/svg"
   xmlns:sodipodi="http://sodipodi.sourceforge.net/DTD/sodipodi-0.dtd"
   xmlns:inkscape="http://www.inkscape.org/namespaces/inkscape"
   version="1.1"
   width="840.18353"
   height="334.94577"
   id="svg3803"
   sodipodi:docname="IBM_Logo_1956.svg"
   inkscape:version="0.92.2 (5c3e80d, 2017-08-06)">
  <metadata
     id="metadata820">
    <rdf:RDF>
      <cc:Work
         rdf:about="">
        <dc:format>image/svg+xml</dc:format>
        <dc:type
           rdf:resource="http://purl.org/dc/dcmitype/StillImage" />
      </cc:Work>
    </rdf:RDF>
  </metadata>
  <sodipodi:namedview
     pagecolor="#ffffff"
     bordercolor="#666666"
     borderopacity="1"
     objecttolerance="10"
     gridtolerance="10"
     guidetolerance="10"
     inkscape:pageopacity="0"
     inkscape:pageshadow="2"
     inkscape:window-width="1366"
     inkscape:window-height="705"
     id="namedview818"
     showgrid="false"
     inkscape:zoom="1.2646927"
     inkscape:cx="633.72871"
     inkscape:cy="167.47289"
     inkscape:window-x="-8"
     inkscape:window-y="-8"
     inkscape:window-maximized="1"
     inkscape:current-layer="svg3803" />
  <defs
     id="defs3807" />
  <path
     d="M 1.0221782,301.24095 V 267.05903 H 24.603277 48.184374 V 168.58252 70.106029 H 24.603277 1.0221782 V 35.924104 1.7421789 H 83.149449 165.27672 V 35.924104 70.106029 H 142.50876 119.7408 v 98.476491 98.47651 h 22.76796 22.76796 v 34.18192 34.18192 H 83.149449 1.0221782 Z M 187.14413,333.34026 c -0.43917,-1.14542 -0.59916,-16.34419 -0.35553,-33.77499 l 0.44294,-31.6924 23.17452,-0.45161 23.17454,-0.45162 V 168.58252 70.195412 l -23.17454,-0.451618 -23.17452,-0.45162 0.44689,-33.36807 0.44689,-33.3680691 88.99865,-0.4730249 c 99.94055,-0.5311787 100.21548,-0.5067208 125.25326,11.143107 41.5043,19.31153 58.33786,71.526796 36.78998,114.117173 -5.19572,10.26961 -20.00615,25.96475 -31.74583,33.64219 l -9.63915,6.30376 6.58967,4.57066 c 8.98468,6.23184 25.12941,23.76678 32.75516,35.57565 26.23804,40.631 8.91247,96.34576 -37.20788,119.65132 -15.66476,7.91573 -20.99769,8.28624 -119.634,8.31194 -73.52581,0.0191 -92.5053,-0.40032 -93.14105,-2.05855 z m 186.29676,-98.0216 V 203.5783 h -34.15193 -34.15194 v 31.74036 31.74037 h 34.15194 34.15193 z m 0,-133.47228 V 70.106029 h -34.15193 -34.15194 v 31.740351 31.74036 h 34.15194 34.15193 z M 466.139,301.24095 v -34.18192 h 23.5811 23.58109 V 168.58252 70.106029 H 489.7201 466.139 V 35.924104 1.7421789 h 67.31324 67.31322 l 8.10688,23.1948771 c 4.45878,12.757182 16.04399,46.044466 25.74494,73.971744 9.70093,27.92726 17.92799,50.48667 18.28234,50.13204 0.35433,-0.35467 12.56411,-33.45884 27.13285,-73.564821 L 706.52107,2.5560349 773.35253,2.1310504 840.18399,1.7060669 V 35.906047 70.106029 h -23.5811 -23.58109 v 98.476491 98.47651 h 23.58109 23.5811 v 34.18192 34.18192 h -59.35931 -59.35931 l -0.0773,-94.81414 -0.0773,-94.81415 -5.65381,16.27709 c -45.70618,131.5868 -60.54275,172.58656 -62.59712,172.98255 -1.73059,0.33357 -10.78341,-23.84456 -34.7375,-92.77654 -17.8183,-51.27523 -32.82013,-93.74067 -33.3374,-94.36767 -0.51725,-0.62699 -0.74587,41.30689 -0.50803,93.18645 l 0.43238,94.32641 h -59.3852 -59.3852 v -34.18192 z"
     id="path3851"
     style="fill:#5b91ef;fill-opacity:1;stroke-width:1.26983833"
     inkscape:connector-curvature="0" />
</svg>
