<svg xmlns="http://www.w3.org/2000/svg" viewBox="0 0 54 51.9">
  <defs>
    <style>
      .cls-1 {
        fill: #5e7c80;
      }
    </style>
  </defs>
  <path id="cio" class="cls-1" d="M18.7,9.2V8.3a1.884,1.884,0,0,0-.2-.8,1.794,1.794,0,0,0-.5-.7,1.222,1.222,0,0,0-.9-.3,2.22,2.22,0,0,0-.9.1,1.794,1.794,0,0,0-.7.5,2.01,2.01,0,0,0-.4.8,2.92,2.92,0,0,0-.2.9v.9a2.92,2.92,0,0,0,.2.9,1.794,1.794,0,0,0,.5.7,1.222,1.222,0,0,0,.9.3,2.22,2.22,0,0,0,.9-.1,1.794,1.794,0,0,0,.7-.5,2.01,2.01,0,0,0,.4-.8,2.959,2.959,0,0,0,.2-1m11.5.7a.9.9,0,0,0-.1.5h2.4a.9.9,0,0,0-.1-.5.52.52,0,0,0-.2-.4,1.38,1.38,0,0,0-.4-.3,1.3,1.3,0,0,0-1,0c-.1.1-.3.2-.4.3a.758.758,0,0,1-.2.4M40.4,8.8,38.8,13h-.7L36.9,9.4,35.6,13h-.8L33.3,8.7h.8l1.1,3.5,1.2-3.5h.9l1.1,3.5,1.1-3.5ZM33.2,11l-3.1-.1V11a1.268,1.268,0,0,0,.1.6c.1.2.1.3.2.5.1.1.2.3.4.3a1.083,1.083,0,0,0,.6.1,1.884,1.884,0,0,0,.8-.2,1.612,1.612,0,0,0,.4-.7h.7a1.442,1.442,0,0,1-.7,1.1,2.375,2.375,0,0,1-1.2.3,2.92,2.92,0,0,1-.9-.2,2.651,2.651,0,0,1-.6-.5,1.612,1.612,0,0,1-.4-.7,2.769,2.769,0,0,1-.1-.9c0-.3.1-.6.1-.9a1.612,1.612,0,0,1,.4-.7,6.126,6.126,0,0,0,.6-.4,2.92,2.92,0,0,1,.9-.2,2,2,0,0,1,.9.2,2.651,2.651,0,0,1,.6.5,6.89,6.89,0,0,1,.3.8c0,.4,0,.7,0,1M28.7,6.7v.8h-.8V6.7Zm-1,6.2.1-4.3h.7l-.1,4.3Zm-.1-6.2-2.6,6h-.9l-2-6.3H23l1.7,5.5,2.2-5.3ZM19.5,9.3a2.663,2.663,0,0,1-.3,1.2,3.328,3.328,0,0,1-.6,1,2.361,2.361,0,0,1-.9.6,2.769,2.769,0,0,1-1.3.1,3.374,3.374,0,0,1-1.2-.4,3.043,3.043,0,0,1-.8-.8A3.582,3.582,0,0,1,14,9.9q0-.45,0-1.2a2.663,2.663,0,0,1,.3-1.2,8.794,8.794,0,0,1,.6-1,2.361,2.361,0,0,1,.9-.6,2.769,2.769,0,0,1,1.3-.1,4.951,4.951,0,0,1,1.3.4,1.337,1.337,0,0,1,.7.8,3.582,3.582,0,0,1,.4,1.1,2.428,2.428,0,0,1,0,1.2M13.6,5.5l-1,6.1-.8-.1,1-6.1ZM11.8,6.9,11,6.7V6.2a.758.758,0,0,0-.2-.4,1.38,1.38,0,0,0-.4-.3.749.749,0,0,1-.5-.1,2.22,2.22,0,0,0-.9.1,1.612,1.612,0,0,0-.7.4,2.177,2.177,0,0,0-.5.8,1.33,1.33,0,0,0-.3.8,2.769,2.769,0,0,0-.1.9,1.949,1.949,0,0,0,.1.8,2.01,2.01,0,0,0,.4.8,2.01,2.01,0,0,0,.8.4,1.147,1.147,0,0,0,1-.1,1.057,1.057,0,0,0,.6-.7l.8.2c-.1.3-.2.6-.4.7a2.092,2.092,0,0,1-.6.4,1.7,1.7,0,0,1-.7.1,2.485,2.485,0,0,1-.8-.1,2.812,2.812,0,0,1-1.1-.5,2.336,2.336,0,0,1-.7-.7,3.545,3.545,0,0,1-.3-1.1,4.869,4.869,0,0,1,.1-1.2,6.117,6.117,0,0,1,.5-1.2,2.178,2.178,0,0,1,.7-.9,3.128,3.128,0,0,1,1-.5,2.438,2.438,0,0,1,1.2,0c.2.1.5.1.7.3.2.1.4.3.6.4a2.092,2.092,0,0,1,.4.6,2.2,2.2,0,0,1,.1.8M54,45.2,46.5,2.3A178.083,178.083,0,0,1,26.1,2c-12.3-.9-21-2-21-2L0,51l.2.9,52.2-1.4.6-1-37,1c2.7-.2,5.8-.4,9.1-.8A269.12,269.12,0,0,0,54,45.2"/>
</svg>
