<svg id="financials" xmlns="http://www.w3.org/2000/svg" viewBox="0 0 56.5 63.7">
  <defs>
    <style>
      .cls-1 {
        fill: #5e7c80;
      }
    </style>
  </defs>
  <path id="Path_25" data-name="Path 25" class="cls-1" d="M15.7,32.3l1.8.6a26.673,26.673,0,0,1,7.1,2.5,19.756,19.756,0,0,1,9-6.2l-.6-.6a21.13,21.13,0,0,0-5.1-2.9A39.82,39.82,0,0,0,22.3,24a43.709,43.709,0,0,1-7-2.3A3.769,3.769,0,0,1,13,18.2a3.139,3.139,0,0,1,.7-2.1,4.573,4.573,0,0,1,1.7-1.4,8.468,8.468,0,0,1,2.4-.8,11.377,11.377,0,0,1,5.6.1,16.932,16.932,0,0,1,2.7,1c.8.4,1.6.9,2.3,1.3.7.5,1.2.9,1.7,1.3l6.5-7.2a29.956,29.956,0,0,0-4.8-3.5,16.171,16.171,0,0,0-5.5-2V0H14V4.9h.2a16.322,16.322,0,0,0-8.1,4,12.426,12.426,0,0,0-3.8,9.4,11.83,11.83,0,0,0,3.4,8.8,23.07,23.07,0,0,0,10,5.2"/>
  <path id="Path_26" data-name="Path 26" class="cls-1" d="M20.2,47.8a15.814,15.814,0,0,1,.4-3.8h-.2a16.609,16.609,0,0,1-7.8-1.8,23.2,23.2,0,0,1-5.7-4.1L0,45.5a25.772,25.772,0,0,0,14,7.4v4.4h8.7a18.958,18.958,0,0,1-2.5-9.5"/>
  <path id="Path_27" data-name="Path 27" class="cls-1" d="M49.7,48.6a.215.215,0,0,1-.2.2h-4v8.1a.472.472,0,0,1-.5.5H35.8a.472.472,0,0,1-.5-.5V48.8h-4a.215.215,0,0,1-.2-.2v-.3l9.2-9.9c.1-.1.1-.1.2-.1s.1,0,.2.1l9.2,9.9c-.2,0-.1.2-.2.3M40.3,31.9A15.9,15.9,0,1,0,56.5,47.8,16.007,16.007,0,0,0,40.3,31.9"/>
</svg>
